# This file uses centimeters as units for non-parametric coordinates.

mtllib star.mtl
g default
v 0.000000 0.000000 -2.847162
v 0.000000 0.000000 2.894744
v 0.290774 11.021914 -0.473227
v -0.290772 11.021914 -0.473227
v -0.290772 11.021914 0.473227
v 0.290774 11.021914 0.473227
v -10.393237 3.680568 -0.384972
v -10.571690 3.131351 -0.384972
v -10.571690 3.131350 0.384972
v -10.393237 3.680568 0.384972
v -6.713756 -8.746005 -0.473227
v -6.243281 -9.087825 -0.473227
v -6.243281 -9.087824 0.473227
v -6.713756 -8.746005 0.473227
v 6.243280 -9.087826 -0.473227
v 6.713756 -8.746006 -0.473227
v 6.713756 -8.746006 0.473227
v 6.243280 -9.087826 0.473227
v 10.572315 3.129420 -0.473227
v 10.392611 3.682496 -0.473227
v 10.392611 3.682496 0.473227
v 10.572315 3.129420 0.473227
v 3.461536 3.483073 -1.532789
v 2.743459 2.739435 -1.678140
v 2.074088 2.854737 -1.881443
v 1.757583 3.455716 -1.678140
v 2.242927 4.368445 -1.532789
v 2.701686 3.718551 -1.596864
v 3.461536 3.483073 1.532789
v 2.701686 3.718551 1.596864
v 2.242927 4.368445 1.532789
v 1.757583 3.455716 1.678140
v 2.074580 2.855413 1.889480
v 2.743459 2.739435 1.678140
v -3.461451 3.482836 -1.522169
v -2.701688 3.718487 -1.593890
v -2.242951 4.368358 -1.532803
v -1.757583 3.455716 -1.678140
v -2.074088 2.854737 -1.881443
v -2.743458 2.739436 -1.678140
v -3.461451 3.482836 1.522169
v -2.743458 2.739436 1.678140
v -2.074579 2.855413 1.889480
v -1.757583 3.455716 1.678140
v -2.242951 4.368358 1.532803
v -2.701688 3.718487 1.593890
v -4.382242 -2.215702 -1.532803
v -4.371383 -1.420306 -1.593890
v -4.847533 -0.783083 -1.522169
v -3.829704 -0.603685 -1.678140
v -3.355945 -1.090412 -1.881443
v -3.453133 -1.762652 -1.678140
v -4.382242 -2.215702 1.532803
v -3.453133 -1.762652 1.678140
v -3.356740 -1.090671 1.889480
v -3.829704 -0.603685 1.678140
v -4.847533 -0.783083 1.522169
v -4.371383 -1.420306 1.593890
v 0.753142 -4.852505 -1.532789
v -0.000000 -4.596382 -1.596864
v -0.753142 -4.852505 -1.532789
v -0.609305 -3.828814 -1.678140
v -0.000000 -3.528649 -1.881443
v 0.609305 -3.828814 -1.678140
v 0.753142 -4.852505 1.532789
v 0.609305 -3.828814 1.678140
v -0.000000 -3.529485 1.889480
v -0.609305 -3.828814 1.678140
v -0.753142 -4.852505 1.532789
v -0.000000 -4.596382 1.596864
v 4.847740 -0.783226 -1.532789
v 4.371419 -1.420360 -1.596864
v 4.382273 -2.215787 -1.532789
v 3.453133 -1.762652 -1.678140
v 3.355944 -1.090412 -1.881443
v 3.829704 -0.603685 -1.678140
v 4.847740 -0.783226 1.532789
v 3.829704 -0.603685 1.678140
v 3.356740 -1.090671 1.889480
v 3.453133 -1.762652 1.678140
v 4.382273 -2.215787 1.532789
v 4.371419 -1.420360 1.596864
v 2.510725 3.455716 -1.678140
v 2.510725 3.455716 1.678140
v -2.510725 3.455717 -1.678140
v -2.510725 3.455717 1.678140
v -4.062438 -1.319966 -1.678140
v -4.062438 -1.319966 1.678140
v -0.000000 -4.271500 -1.678140
v -0.000000 -4.271500 1.678140
v 4.062438 -1.319966 -1.678140
v 4.062438 -1.319966 1.678140
v -0.290772 11.021914 0.000000
v -2.242951 4.368358 0.000000
v -2.701688 3.718487 0.000000
v -3.461451 3.482836 0.000000
v -10.393237 3.680568 0.000000
v -10.571690 3.131350 0.000000
v -4.847533 -0.783083 0.000000
v -4.371383 -1.420306 0.000000
v -4.382242 -2.215702 0.000000
v -6.713756 -8.746005 0.000000
v -6.243281 -9.087825 0.000000
v -0.753142 -4.852505 0.000000
v -0.000000 -4.596382 0.000000
v 0.753142 -4.852505 0.000000
v 6.243280 -9.087826 0.000000
v 6.713756 -8.746006 0.000000
v 4.382273 -2.215787 0.000000
v 4.371419 -1.420360 0.000000
v 4.847740 -0.783226 0.000000
v 10.572315 3.129420 0.000000
v 10.392611 3.682496 0.000000
v 3.461536 3.483073 0.000000
v 2.701686 3.718551 0.000000
v 2.242927 4.368445 0.000000
v 0.290774 11.021914 0.000000
v 0.000001 11.021914 -0.473227
v 0.000001 11.021914 0.000000
v 0.000001 11.021914 0.473227
v -0.029372 3.455716 1.678140
v -0.008556 3.455716 -1.678140
v -10.482464 3.405960 -0.384972
v -10.482464 3.405959 0.000000
v -10.482464 3.405959 0.384972
v -6.478518 -8.916915 -0.473227
v -6.478518 -8.916915 0.000000
v -6.478518 -8.916915 0.473227
v 6.478518 -8.916916 -0.473227
v 6.478518 -8.916916 0.000000
v 6.478518 -8.916916 0.473227
v 10.482464 3.405958 -0.473227
v 10.482464 3.405958 0.000000
v 10.482464 3.405958 0.473227
v 3.292516 1.049612 1.678140
v 6.478518 -8.916915 0.380397
v 6.482360 -8.914124 0.473227
v 2.013493 -2.808611 1.678140
v -2.059677 -2.775057 1.678140
v -3.270217 1.118239 1.678140
v -3.282433 1.080643 -1.678140
v -1.854893 -2.923841 -1.678140
v 2.108332 -2.739707 -1.678140
v 3.307225 1.004342 -1.678140
vt 0.306725 0.643398
vt 0.303154 0.643373
vt 0.303186 0.638584
vt 0.306757 0.638609
vt 0.306693 0.648187
vt 0.303121 0.648162
vt 0.299582 0.643349
vt 0.299615 0.638560
vt 0.299550 0.648138
vt 0.213813 0.642765
vt 0.213941 0.623829
vt 0.213686 0.661700
vt 0.203975 0.642698
vt 0.204108 0.622870
vt 0.203841 0.662526
vt 0.194136 0.642631
vt 0.194265 0.623563
vt 0.194008 0.661699
vt 0.108374 0.642047
vt 0.108414 0.636160
vt 0.108335 0.647933
vt 0.104778 0.642022
vt 0.104818 0.636135
vt 0.104738 0.647909
vt 0.101182 0.641998
vt 0.101221 0.636111
vt 0.101142 0.647884
vt 0.703518 0.646101
vt 0.699922 0.646077
vt 0.699961 0.640190
vt 0.703558 0.640214
vt 0.703478 0.651988
vt 0.699882 0.651964
vt 0.696325 0.646052
vt 0.696365 0.640165
vt 0.789407 0.627618
vt 0.789279 0.646686
vt 0.696286 0.651939
vt 0.789150 0.665753
vt 0.799118 0.646753
vt 0.799251 0.626888
vt 0.798984 0.666617
vt 0.808957 0.646820
vt 0.809085 0.627752
vt 0.808828 0.665887
vt 0.894717 0.647404
vt 0.894757 0.641517
vt 0.894678 0.653291
vt 0.898295 0.641541
vt 0.898346 0.642697
vt 0.898314 0.647429
vt 0.898274 0.653316
vt 0.898353 0.641542
vt 0.901910 0.647453
vt 0.901950 0.641566
vt 0.901870 0.653340
vt 0.497933 0.644700
vt 0.412171 0.644116
vt 0.412300 0.625048
vt 0.497973 0.638813
vt 0.412043 0.663184
vt 0.497893 0.650587
vt 0.402333 0.644049
vt 0.402466 0.624221
vt 0.402199 0.663877
vt 0.591015 0.626266
vt 0.590886 0.645334
vt 0.505126 0.644749
vt 0.505165 0.638863
vt 0.600725 0.645401
vt 0.600859 0.625536
vt 0.590758 0.664401
vt 0.505086 0.650636
vt 0.600592 0.665265
vt 0.501529 0.644725
vt 0.501569 0.638838
vt 0.501490 0.650612
vt 0.392621 0.625047
vt 0.392494 0.643982
vt 0.392366 0.662918
vt 0.610564 0.645468
vt 0.610693 0.626400
vt 0.610436 0.664535
vt 0.015421 0.641413
vt 0.997510 0.648105
vt 0.005716 0.621482
vt 0.015549 0.622346
vt 0.015292 0.660481
vt 0.005448 0.661211
vt 0.987671 0.648038
vt 0.987799 0.628970
vt 0.987542 0.667105
vt 0.260512 0.250031
vt 0.236817 0.171623
vt 0.274540 0.159900
vt 0.286080 0.171777
vt 0.193970 0.201518
vt 0.196388 0.185147
vt 0.278720 0.136139
vt 0.180802 0.003316
vt 0.187231 0.001241
vt 0.291596 0.154896
vt 0.302408 0.169005
vt 0.325536 0.200205
vt 0.179627 0.191062
vt 0.179094 0.168323
vt 0.174386 0.005401
vt 0.178613 0.250095
vt 0.179116 0.208827
vt 0.294004 0.147527
vt 0.470513 0.097983
vt 0.313063 0.147362
vt 0.466549 0.092513
vt 0.350567 0.235532
vt 0.342850 0.250169
vt 0.173362 0.186495
vt 0.193824 0.298316
vt 0.178995 0.290960
vt 0.157809 0.197511
vt 0.001237 0.249622
vt 0.001260 0.242876
vt 0.374459 0.232164
vt 0.474460 0.103454
vt 0.360607 0.250204
vt 0.350541 0.264851
vt 0.329690 0.294164
vt 0.179448 0.308727
vt 0.157655 0.302210
vt 0.001228 0.256378
vt 0.234779 0.327785
vt 0.196184 0.314703
vt 0.368360 0.250217
vt 0.470008 0.402790
vt 0.374414 0.268296
vt 0.473984 0.397329
vt 0.302128 0.331199
vt 0.285833 0.328395
vt 0.173162 0.313288
vt 0.274251 0.340222
vt 0.178830 0.331506
vt 0.179890 0.496806
vt 0.173513 0.494722
vt 0.312712 0.352882
vt 0.466025 0.408235
vt 0.291284 0.345277
vt 0.278340 0.364027
vt 0.186262 0.498875
vt 0.293665 0.352670
vt 0.803150 0.009922
vt 0.748296 0.178476
vt 0.709491 0.166462
vt 0.705303 0.142720
vt 0.796723 0.007850
vt 0.804943 0.174858
vt 0.787666 0.191672
vt 0.809563 0.012005
vt 0.697931 0.178379
vt 0.723551 0.256644
vt 0.692406 0.161492
vt 0.689996 0.154126
vt 0.810697 0.193055
vt 0.804436 0.197622
vt 0.790083 0.208094
vt 0.656812 0.209020
vt 0.681565 0.175602
vt 0.670909 0.153977
vt 0.804987 0.215405
vt 0.826273 0.204086
vt 0.805542 0.257159
vt 0.641194 0.256835
vt 0.633432 0.242161
vt 0.513548 0.104641
vt 0.517445 0.099274
vt 0.982796 0.256135
vt 0.982771 0.249392
vt 0.805147 0.297536
vt 0.790272 0.304904
vt 0.623426 0.256875
vt 0.609558 0.238811
vt 0.509527 0.110203
vt 0.513483 0.104731
vt 0.657813 0.305655
vt 0.633496 0.271542
vt 0.826472 0.308774
vt 0.982808 0.262888
vt 0.804668 0.315319
vt 0.787932 0.321342
vt 0.750233 0.334180
vt 0.615676 0.256892
vt 0.698279 0.335026
vt 0.681926 0.337877
vt 0.609637 0.274999
vt 0.514175 0.409521
vt 0.510209 0.404068
vt 0.810954 0.319877
vt 0.804299 0.503344
vt 0.805284 0.338119
vt 0.810671 0.501256
vt 0.709882 0.346889
vt 0.692825 0.351933
vt 0.671371 0.359548
vt 0.518159 0.414974
vt 0.705806 0.370681
vt 0.797931 0.505415
vt 0.690450 0.359325
vt 0.005582 0.641346
vt 0.997644 0.628240
vt 0.997376 0.667969
vn 0.000000 1.000000 -0.000001
vn 0.000000 1.000000 -0.000001
vn 0.000000 1.000000 -0.000002
vn 0.000000 1.000000 -0.000002
vn -0.951056 0.309019 0.000000
vn -0.951056 0.309018 0.000000
vn -0.951057 0.309016 0.000000
vn -0.951057 0.309017 0.000000
vn -0.587786 -0.809016 0.000000
vn -0.587785 -0.809017 0.000000
vn -0.587785 -0.809017 0.000001
vn -0.587786 -0.809016 0.000000
vn 0.587785 -0.809017 0.000000
vn 0.587785 -0.809017 0.000000
vn 0.587785 -0.809017 0.000000
vn 0.587785 -0.809017 0.000000
vn 0.587785 -0.809017 0.000000
vn 0.951058 0.309013 0.000000
vn 0.951057 0.309016 0.000000
vn 0.951057 0.309017 0.000000
vn 0.951058 0.309013 0.000000
vn -0.959551 0.281536 0.000000
vn -0.944474 0.328585 0.000000
vn -0.942275 0.334840 0.000000
vn -0.959551 0.281536 0.000000
vn 0.942224 0.334985 -0.000000
vn 0.944460 0.328626 -0.000000
vn 0.959551 0.281536 -0.000000
vn 0.959551 0.281536 -0.000000
vn -0.564478 -0.825448 0.000000
vn -0.606165 -0.795339 0.000000
vn -0.612199 -0.790704 0.000000
vn -0.564478 -0.825448 0.000000
vn -0.030516 0.999534 0.000000
vn -0.022910 0.999738 0.000000
vn 0.028514 0.999593 0.000000
vn 0.028514 0.999593 0.000000
vn 0.610810 -0.791777 0.000000
vn 0.570922 -0.821004 0.000000
vn 0.565375 -0.824834 0.000000
vn 0.610810 -0.791777 0.000001
vn -0.959131 0.282964 -0.000000
vn -0.957233 0.289317 0.000000
vn -0.941776 0.336242 0.000000
vn -0.941776 0.336242 -0.000000
vn 0.941776 0.336242 0.000000
vn 0.957246 0.289275 0.000000
vn 0.959174 0.282816 0.000000
vn 0.941776 0.336242 0.000000
vn -0.565375 -0.824834 0.000000
vn -0.570922 -0.821004 0.000000
vn -0.610810 -0.791777 0.000000
vn -0.610810 -0.791777 0.000000
vn -0.028760 0.999586 0.000000
vn 0.020688 0.999786 0.000000
vn 0.027427 0.999624 0.000000
vn -0.028760 0.999586 0.000000
vn 0.609753 -0.792592 0.000000
vn 0.604397 -0.796684 0.000000
vn 0.564274 -0.825587 0.000000
vn 0.564274 -0.825587 0.000000
vn -0.000238 -0.000570 -1.000000
vn 0.195891 0.063649 -0.978558
vn 0.196022 0.063008 -0.978573
vn 0.251409 -0.080473 -0.964530
vn -0.000000 0.157268 -0.987556
vn -0.000000 0.205978 -0.978557
vn -0.000684 0.206005 -0.978551
vn -0.000846 0.157510 -0.987517
vn 0.000000 0.157268 -0.987556
vn 0.149570 0.048598 0.987556
vn 0.199406 0.064791 0.977773
vn 0.199577 0.064176 0.977778
vn 0.150029 0.047918 0.987520
vn 0.149570 0.048598 0.987556
vn -0.000037 0.000006 1.000000
vn -0.000000 0.209667 0.977773
vn -0.000689 0.209636 0.977779
vn -0.160220 0.222183 0.961751
vn -0.160225 0.052060 -0.985707
vn -0.203320 0.066063 -0.976881
vn -0.203580 0.065486 -0.976866
vn -0.160676 0.051391 -0.985668
vn -0.160225 0.052061 -0.985707
vn -0.155004 0.213671 -0.964530
vn -0.206810 0.067197 0.976071
vn -0.207109 0.066642 0.976045
vn -0.261620 -0.081250 0.961745
vn -0.000852 0.157512 0.987517
vn -0.000000 0.157268 0.987556
vn 0.000000 0.157268 0.987556
vn -0.092440 -0.127232 -0.987556
vn -0.121030 -0.166584 -0.978571
vn -0.120310 -0.166767 -0.978629
vn -0.091895 -0.127929 -0.987517
vn -0.092440 -0.127232 -0.987556
vn -0.248680 -0.088848 -0.964502
vn -0.123239 -0.169624 0.977773
vn -0.122771 -0.170044 0.977759
vn -0.002315 -0.273924 0.961749
vn -0.160669 0.051400 0.985669
vn -0.160225 0.052060 0.985707
vn -0.160225 0.052060 0.985707
vn 0.091954 -0.127853 -0.987521
vn 0.120677 -0.167139 -0.978520
vn 0.121063 -0.166629 -0.978559
vn 0.092440 -0.127232 -0.987556
vn 0.092440 -0.127232 -0.987556
vn 0.012591 -0.263951 -0.964454
vn 0.122667 -0.169923 0.977793
vn 0.123240 -0.169625 0.977773
vn -0.091944 -0.127866 0.987520
vn -0.092440 -0.127232 0.987556
vn -0.092440 -0.127232 0.987556
vn 0.150037 0.047906 -0.987519
vn 0.149571 0.048598 -0.987556
vn 0.149571 0.048598 -0.987556
vn 0.260001 -0.086237 0.961750
vn 0.092440 -0.127232 0.987556
vn 0.091934 -0.127878 0.987520
vn 0.092440 -0.127232 0.987556
vn 0.092440 -0.127232 0.987556
vn 0.296012 0.955184 0.000000
vn 0.296012 0.955184 0.000000
vn 0.816962 0.576692 0.000000
vn 0.816962 0.576692 0.000000
vn -0.816966 0.576686 0.000000
vn -0.816966 0.576686 0.000000
vn -0.296240 0.955113 0.000000
vn -0.296240 0.955113 0.000000
vn -0.801065 -0.598578 0.000000
vn -0.801065 -0.598578 0.000000
vn -0.999907 0.013651 0.000000
vn -0.999907 0.013651 0.000000
vn 0.321964 -0.946752 0.000000
vn 0.321964 -0.946752 0.000000
vn -0.321964 -0.946752 0.000000
vn -0.321964 -0.946752 0.000000
vn 0.999907 0.013644 0.000000
vn 0.999907 0.013644 0.000000
vn 0.800922 -0.598769 0.000000
vn 0.800922 -0.598769 0.000000
vn 0.000781 0.157491 -0.987520
vn 0.093253 0.128352 -0.987335
vn 0.104547 0.143897 -0.984055
vn 0.000632 0.206019 -0.978548
vn 0.156977 0.212236 -0.964528
vn 0.195829 0.064279 -0.978529
vn 0.149542 0.049394 -0.987521
vn 0.149542 0.049407 0.987520
vn 0.093253 0.128352 0.987335
vn 0.105664 0.145433 0.983710
vn 0.199247 0.065401 0.977764
vn 0.160678 0.221850 0.961751
vn 0.000627 0.209722 0.977761
vn 0.000775 0.157490 0.987520
vn -0.160196 0.052875 -0.985668
vn -0.100131 0.130357 -0.986398
vn -0.110132 0.145554 -0.983202
vn -0.203153 0.066677 -0.976874
vn -0.100131 0.130357 0.986398
vn -0.111244 0.147088 0.982848
vn -0.206561 0.067794 0.976082
vn -0.160195 0.052887 0.985668
vn -0.093203 -0.126954 -0.987520
vn -0.157630 -0.046605 -0.986398
vn -0.174653 -0.053022 -0.983202
vn -0.121789 -0.166556 -0.978482
vn -0.157630 -0.046605 0.986398
vn -0.176454 -0.053609 0.982848
vn -0.123774 -0.169185 0.977782
vn -0.093274 -0.126928 0.987517
vn 0.000000 -0.158652 -0.987335
vn -0.000000 -0.177866 -0.984055
vn -0.000000 -0.158652 0.987335
vn -0.000000 -0.179765 0.983710
vn 0.150887 -0.049026 -0.987335
vn 0.169161 -0.054964 -0.984055
vn 0.121528 -0.166150 -0.978583
vn 0.093233 -0.126943 -0.987519
vn 0.093201 -0.126955 0.987520
vn 0.150887 -0.049026 0.987335
vn 0.170967 -0.055551 0.983710
vn 0.123810 -0.169340 0.977750
vn -0.942275 0.334840 0.000000
vn -0.959551 0.281536 0.000000
vn -0.816966 0.576686 0.000000
vn -0.296240 0.955113 0.000000
vn -0.030516 0.999534 0.000000
vn 0.028514 0.999593 0.000000
vn -0.951055 0.309021 0.000000
vn -0.951056 0.309019 0.000000
vn -0.612199 -0.790704 0.000000
vn -0.564478 -0.825448 0.000000
vn -0.801065 -0.598578 0.000000
vn -0.999907 0.013651 0.000000
vn -0.959131 0.282964 0.000000
vn -0.941776 0.336242 0.000000
vn -0.587786 -0.809016 0.000000
vn -0.587786 -0.809017 0.000000
vn 0.565375 -0.824834 0.000000
vn 0.610810 -0.791777 0.000000
vn 0.321964 -0.946752 0.000000
vn -0.321964 -0.946752 0.000000
vn -0.565375 -0.824834 0.000000
vn -0.610810 -0.791777 0.000000
vn 0.587784 -0.809018 0.000000
vn 0.587785 -0.809017 0.000000
vn 0.959174 0.282816 0.000000
vn 0.941776 0.336242 0.000000
vn 0.999907 0.013644 0.000000
vn 0.800922 -0.598769 0.000000
vn 0.609753 -0.792592 0.000000
vn 0.564274 -0.825587 0.000000
vn 0.951058 0.309013 0.000000
vn 0.951057 0.309016 0.000000
vn 0.027427 0.999624 0.000000
vn -0.028760 0.999586 0.000000
vn 0.296012 0.955184 0.000000
vn 0.816962 0.576692 0.000000
vn 0.942224 0.334985 0.000000
vn 0.959551 0.281536 0.000000
vn 0.000000 1.000000 0.000000
vn 0.000000 1.000000 0.000000
vn 0.000000 1.000000 0.000000
vn 0.000000 1.000000 -0.000001
vn 0.000000 1.000000 -0.000002
vn -0.000000 0.157268 0.987556
vn -0.000000 0.157268 -0.987556
vn -0.951057 0.309017 0.000000
vn -0.951057 0.309016 0.000000
vn -0.951057 0.309016 0.000000
vn -0.587785 -0.809017 0.000000
vn -0.587785 -0.809017 0.000001
vn -0.587784 -0.809018 0.000002
vn 0.587785 -0.809017 0.000000
vn 0.587785 -0.809017 0.000000
vn 0.587784 -0.809018 0.000000
vn 0.951056 0.309019 0.000000
vn 0.951056 0.309020 0.000000
vn 0.951055 0.309021 0.000000
vn 0.149571 0.048598 0.987556
vn 0.587784 -0.809018 0.000000
vn 0.092440 -0.127232 0.987556
vn -0.092440 -0.127232 0.987556
vn -0.160225 0.052060 0.985707
vn -0.160225 0.052060 -0.985707
vn -0.092440 -0.127232 -0.987556
vn 0.092440 -0.127232 -0.987556
vn 0.149571 0.048598 -0.987556
s 1
g pCylinder1
usemtl initialShadingGroup
f 117/68/1 119/75/2 120/76/3 6/69/4
s 2
f 97/1/5 124/2/6 125/3/7 10/4/8
s 3
f 102/19/9 127/22/10 128/23/11 14/20/12
s 4
f 107/54/13 130/51/14 136/50/15 131/53/16 18/55/17
s 5
f 112/28/18 133/29/19 134/30/20 22/31/21
s 6
f 93/57/22 94/58/23 45/59/24 5/60/25
s 7
f 31/66/26 116/67/27 117/68/28 6/69/29
s 8
f 98/7/30 99/10/31 57/11/32 9/8/33
s 9
f 41/78/34 96/79/35 97/1/36 10/4/37
s 10
f 103/25/38 104/84/39 69/87/40 13/26/41
s 11
f 53/17/42 101/16/43 102/19/44 14/20/45
s 12
f 108/46/46 109/43/47 81/44/48 17/47/49
s 13
f 65/91/50 106/90/51 107/54/52 18/55/53
s 14
f 113/34/54 114/81/55 29/82/56 21/35/57
s 15
f 77/36/58 111/37/59 112/28/60 22/31/61
s 16
f 1/93/62 144/94/63 76/95/64 75/96/65
f 118/120/66 122/108/67 38/118/68 37/128/69 4/129/70
s 18
f 134/149/71 135/150/72 78/151/73 77/152/74 22/153/75
f 2/158/76 121/169/77 44/176/78 43/177/79
s 16
f 123/141/80 141/130/81 50/139/82 49/146/83 8/147/84
f 39/117/85 38/118/68 122/108/67 1/93/62
s 18
f 2/158/76 140/188/86 56/199/87 55/190/88
f 45/184/89 44/176/78 121/169/77 120/174/90 5/185/91
s 16
f 126/133/92 142/126/93 62/125/94 61/134/95 12/135/96
f 51/137/97 50/139/82 141/130/81 1/93/62
s 18
f 2/158/76 139/182/98 68/183/99 67/170/100
f 57/203/101 56/199/87 140/188/86 125/196/102 9/204/103
s 16
f 59/122/104 64/114/105 143/104/106 129/111/107 15/123/108
f 63/115/109 62/125/94 142/126/93 1/93/62
s 18
f 67/170/100 66/171/110 138/164/111 2/158/76
f 69/192/112 68/183/99 139/182/98 128/193/113 13/194/114
s 16
f 71/99/115 76/95/64 144/94/63 132/100/116 19/101/117
f 1/93/62 143/104/106 64/114/105 63/115/109
s 18
f 79/157/118 78/151/73 135/150/72 2/158/76
f 137/172/119 138/164/111 66/171/110 65/179/120 18/180/121 131/181/122
s 14
f 114/81/55 115/70/123 30/71/124 29/82/56
s 7
f 115/70/125 116/67/27 31/66/26 30/71/126
s 6
f 94/58/23 95/63/127 46/64/128 45/59/24
s 9
f 95/63/129 96/79/35 41/78/34 46/64/130
s 8
f 99/10/31 100/13/131 58/14/132 57/11/32
s 11
f 100/13/133 101/16/43 53/17/42 58/14/134
s 10
f 104/84/39 105/206/135 70/86/136 69/87/40
s 13
f 105/85/137 106/90/51 65/91/50 70/207/138
s 12
f 109/43/47 110/40/139 82/41/140 81/44/48
s 15
f 110/40/141 111/37/59 77/36/58 82/41/142
s 16
f 27/119/143 28/116/144 83/105/145 26/109/146
f 26/109/146 83/105/145 25/97/147
f 25/97/147 83/105/145 24/98/148
f 24/98/148 83/105/145 28/116/144 23/106/149
s 18
f 29/154/150 30/161/151 84/162/152 34/155/153
f 34/155/153 84/162/152 33/163/154
f 33/163/154 84/162/152 32/167/155
f 32/167/155 84/162/152 30/161/151 31/168/156
s 16
f 35/140/157 36/138/158 85/127/159 40/131/160
f 40/131/160 85/127/159 39/117/85
f 39/117/85 85/127/159 38/118/68
f 38/118/68 85/127/159 36/138/158 37/128/69
s 18
f 45/184/89 46/195/161 86/186/162 44/176/78
f 44/176/78 86/186/162 43/177/79
f 43/177/79 86/186/162 42/187/163
f 42/187/163 86/186/162 46/195/161 41/197/164
s 16
f 47/143/165 48/148/166 87/145/167 52/136/168
f 52/136/168 87/145/167 51/137/97
f 51/137/97 87/145/167 50/139/82
f 50/139/82 87/145/167 48/148/166 49/146/83
s 18
f 57/203/101 58/205/169 88/200/170 56/199/87
f 56/199/87 88/200/170 55/190/88
f 55/190/88 88/200/170 54/191/171
f 54/191/171 88/200/170 58/205/169 53/201/172
s 16
f 59/122/104 60/132/173 89/124/174 64/114/105
f 64/114/105 89/124/174 63/115/109
f 63/115/109 89/124/174 62/125/94
f 62/125/94 89/124/174 60/132/173 61/134/95
s 18
f 69/192/112 70/189/175 90/178/176 68/183/99
f 68/183/99 90/178/176 67/170/100
f 67/170/100 90/178/176 66/171/110
f 66/171/110 90/178/176 70/189/175 65/179/120
s 16
f 71/99/115 72/110/177 91/102/178 76/95/64
f 76/95/64 91/102/178 75/96/65
f 75/96/65 91/102/178 74/103/179
f 74/103/179 91/102/178 72/110/177 73/112/180
s 18
f 81/166/181 82/160/182 92/159/183 80/165/184
f 80/165/184 92/159/183 79/157/118
f 79/157/118 92/159/183 78/151/73
f 78/151/73 92/159/183 82/160/182 77/152/74
s 6
f 37/61/185 94/58/23 93/57/22 4/62/186
f 37/61/185 36/65/187 95/63/127 94/58/23
s 9
f 36/65/188 35/80/189 96/79/35 95/63/129
f 97/1/36 96/79/35 35/80/189 7/5/190
s 2
f 7/5/191 123/6/192 124/2/6 97/1/5
s 8
f 49/12/193 99/10/31 98/7/30 8/9/194
f 49/12/193 48/15/195 100/13/131 99/10/31
s 11
f 48/15/196 47/18/197 101/16/43 100/13/133
f 102/19/44 101/16/43 47/18/197 11/21/198
s 3
f 11/21/199 126/24/200 127/22/10 102/19/9
s 10
f 61/88/201 104/84/39 103/25/38 12/27/202
f 61/88/201 60/89/203 105/206/135 104/84/39
s 13
f 60/208/204 59/92/205 106/90/51 105/85/137
f 107/54/52 106/90/51 59/92/205 15/56/206
s 4
f 15/56/207 129/52/208 130/51/14 107/54/13
s 12
f 73/45/209 109/43/47 108/46/46 16/48/210
f 73/45/209 72/42/211 110/40/139 109/43/47
s 15
f 72/42/212 71/39/213 111/37/59 110/40/141
f 112/28/60 111/37/59 71/39/213 19/32/214
s 5
f 19/32/215 132/33/216 133/29/19 112/28/18
s 14
f 23/83/217 114/81/55 113/34/54 20/38/218
f 23/83/217 28/74/219 115/70/123 114/81/55
s 7
f 28/74/220 27/72/221 116/67/27 115/70/125
f 117/68/28 116/67/27 27/72/221 3/73/222
s 1
f 3/73/223 118/77/224 119/75/2 117/68/1
f 119/75/2 118/77/224 4/62/225 93/57/226
f 120/76/3 119/75/2 93/57/226 5/60/227
s 18
f 33/163/154 32/167/155 121/169/77 2/158/76
f 120/174/90 121/169/77 32/167/155 31/168/156 6/175/228
s 16
f 27/119/143 26/109/146 122/108/67 118/120/66 3/121/229
f 1/93/62 122/108/67 26/109/146 25/97/147
s 2
f 124/2/6 123/6/192 8/9/230 98/7/231
f 125/3/7 124/2/6 98/7/231 9/8/232
s 3
f 127/22/10 126/24/200 12/27/233 103/25/234
f 128/23/11 127/22/10 103/25/234 13/26/235
s 4
f 130/51/14 129/52/208 16/48/236 108/46/237
f 131/53/16 136/50/15 137/49/238
s 5
f 133/29/19 132/33/216 20/38/239 113/34/240
f 134/30/20 133/29/19 113/34/240 21/35/241
s 18
f 29/154/150 34/155/153 135/150/72 134/149/71 21/156/242
f 2/158/76 135/150/72 34/155/153 33/163/154
s 4
f 137/49/238 136/50/15 130/51/14 108/46/237 17/47/243
s 18
f 81/166/181 80/165/184 138/164/111 137/172/119 17/173/244
f 2/158/76 138/164/111 80/165/184 79/157/118
f 55/190/88 54/191/171 139/182/98 2/158/76
f 128/193/113 139/182/98 54/191/171 53/201/172 14/202/245
f 43/177/79 42/187/163 140/188/86 2/158/76
f 125/196/102 140/188/86 42/187/163 41/197/164 10/198/246
s 16
f 35/140/157 40/131/160 141/130/81 123/141/80 7/142/247
f 1/93/62 141/130/81 40/131/160 39/117/85
f 47/143/165 52/136/168 142/126/93 126/133/92 11/144/248
f 1/93/62 142/126/93 52/136/168 51/137/97
f 75/96/65 74/103/179 143/104/106 1/93/62
f 129/111/107 143/104/106 74/103/179 73/112/180 16/113/249
f 25/97/147 24/98/148 144/94/63 1/93/62
f 132/100/116 144/94/63 24/98/148 23/106/149 20/107/250
