{
  "accessors": [
    {
      "bufferView": 0,
      "componentType": 5125,
      "count": 119028,
      "type": "SCALAR"
    },
    {
      "bufferView": 1,
      "componentType": 5126,
      "count": 76886,
      "max": [
        0.955662727355957,
        0.275437563657761,
        1.0
      ],
      "min": [
        -0.955662727355957,
        -0.275437563657761,
        -1.0
      ],
      "type": "VEC3"
    },
    {
      "bufferView": 2,
      "componentType": 5126,
      "count": 76886,
      "type": "VEC3"
    },
    {
      "bufferView": 3,
      "componentType": 5126,
      "count": 76886,
      "type": "VEC2"
    }
  ],
  "asset": {
    "generator": "Substance Painter 2019.3.2",
    "version": "2.0"
  },
  "bufferViews": [
    {
      "buffer": 0,
      "byteLength": 476112,
      "target": 34963
    },
    {
      "buffer": 0,
      "byteLength": 922632,
      "byteOffset": 476112,
      "target": 34962
    },
    {
      "buffer": 0,
      "byteLength": 922632,
      "byteOffset": 1398744,
      "target": 34962
    },
    {
      "buffer": 0,
      "byteLength": 615088,
      "byteOffset": 2321376,
      "target": 34962
    }
  ],
  "buffers": [
    {
      "byteLength": 2936464,
      "uri": "PBR - Metallic Roughness.bin"
    }
  ],
  "images": [
    {
      "uri": "wire_028089177_baseColor.png"
    },
    {
      "uri": "wire_028089177_occlusionRoughnessMetallic.png"
    },
    {
      "uri": "wire_028089177_normal.png"
    }
  ],
  "materials": [
    {
      "alphaMode": "OPAQUE",
      "name": "wire_028089177",
      "normalTexture": {
        "index": 2
      },
      "occlusionTexture": {
        "index": 1
      },
      "pbrMetallicRoughness": {
        "baseColorTexture": {
          "index": 0
        },
        "metallicRoughnessTexture": {
          "index": 1
        }
      }
    }
  ],
  "meshes": [
    {
      "name": "Star001",
      "primitives": [
        {
          "attributes": {
            "NORMAL": 2,
            "POSITION": 1,
            "TEXCOORD_0": 3
          },
          "indices": 0,
          "material": 0,
          "mode": 4
        }
      ]
    }
  ],
  "nodes": [
    {
      "children": [
        1
      ],
      "name": "5EndFlatStarMaya.obj",
      "scale": [
        36.3058700561523,
        36.3058700561523,
        36.3058700561523
      ],
      "translation": [
        -2.94742584228516,
        10.0,
        7.43711090087891
      ]
    },
    {
      "children": [
        2
      ],
      "name": "g Star001"
    },
    {
      "mesh": 0,
      "name": "Star001"
    }
  ],
  "samplers": [
    {
      "magFilter": 9729,
      "minFilter": 9985,
      "wrapS": 10497,
      "wrapT": 10497
    }
  ],
  "scene": 0,
  "scenes": [
    {
      "name": "Scene",
      "nodes": [
        0
      ]
    }
  ],
  "textures": [
    {
      "sampler": 0,
      "source": 0
    },
    {
      "sampler": 0,
      "source": 1
    },
    {
      "sampler": 0,
      "source": 2
    }
  ]
}